<svg width="581" height="253" viewBox="0 0 581 253" fill="none" xmlns="http://www.w3.org/2000/svg">
<path d="M257.52 143.792C258.768 143.792 259.728 144.416 260.4 145.664C261.072 146.912 261.408 148.496 261.408 150.416C261.408 152.816 261.072 154.688 260.4 156.032C259.728 157.28 258.672 158.144 257.232 158.624C251.472 160.64 245.136 161.792 238.224 162.08C236.304 170.048 232.656 176.48 227.28 181.376C222 186.272 216.144 188.72 209.712 188.72C200.016 188.72 192.96 185.024 188.544 177.632C184.128 170.24 181.92 159.536 181.92 145.52C181.92 133.136 183.456 119.696 186.528 105.2C189.6 90.608 194.064 78.224 199.92 68.048C205.872 57.776 212.928 52.64 221.088 52.64C225.504 52.64 229.056 54.56 231.744 58.4C234.432 62.144 235.776 67.04 235.776 73.088C235.776 80.96 234.288 88.784 231.312 96.56C228.336 104.336 223.392 112.496 216.48 121.04C222.912 121.52 228.144 124.208 232.176 129.104C236.208 133.904 238.608 139.856 239.376 146.96C243.888 146.672 249.264 145.712 255.504 144.08C256.08 143.888 256.752 143.792 257.52 143.792ZM217.776 66.896C215.856 66.896 213.744 69.776 211.44 75.536C209.232 81.2 207.168 88.928 205.248 98.72C203.328 108.512 201.888 119.216 200.928 130.832C207.264 119.216 212.304 108.992 216.048 100.16C219.888 91.232 221.808 83.312 221.808 76.4C221.808 73.328 221.424 70.976 220.656 69.344C219.984 67.712 219.024 66.896 217.776 66.896ZM210.288 173.456C213.264 173.456 215.904 172.208 218.208 169.712C220.512 167.216 222.048 163.616 222.816 158.912C219.84 156.896 217.536 154.256 215.904 150.992C214.368 147.728 213.6 144.272 213.6 140.624C213.6 139.28 213.792 137.456 214.176 135.152H213.744C209.808 135.152 206.496 137.12 203.808 141.056C201.216 144.896 199.92 150.08 199.92 156.608C199.92 162.08 200.928 166.256 202.944 169.136C205.056 172.016 207.504 173.456 210.288 173.456ZM263.663 188.72C259.343 188.72 255.791 186.752 253.007 182.816C250.319 178.784 248.975 173.792 248.975 167.84C248.975 160.64 249.455 154.064 250.415 148.112C251.375 142.064 252.959 135.68 255.167 128.96C256.127 126.08 257.471 124.016 259.199 122.768C260.927 121.52 263.663 120.896 267.407 120.896C269.519 120.896 270.959 121.232 271.727 121.904C272.591 122.576 273.023 123.584 273.023 124.928C273.023 125.696 272.495 128.288 271.439 132.704C270.479 136.256 269.711 139.472 269.135 142.352C267.215 152.432 266.255 159.152 266.255 162.512C266.255 164.528 266.495 165.968 266.975 166.832C267.455 167.6 268.223 167.984 269.279 167.984C270.719 167.984 272.495 166.544 274.607 163.664C276.815 160.784 279.119 156.416 281.519 150.56C284.015 144.704 286.415 137.504 288.719 128.96C289.487 126.08 290.639 124.016 292.175 122.768C293.807 121.52 296.207 120.896 299.375 120.896C301.583 120.896 303.119 121.184 303.983 121.76C304.847 122.24 305.279 123.2 305.279 124.64C305.279 127.04 304.079 133.616 301.679 144.368C298.991 156.656 297.647 164.24 297.647 167.12C297.647 168.944 298.031 170.384 298.799 171.44C299.567 172.4 300.575 172.88 301.823 172.88C303.743 172.88 305.999 171.728 308.591 169.424C311.279 167.024 314.831 163.184 319.247 157.904C320.399 156.56 321.695 155.888 323.135 155.888C324.383 155.888 325.343 156.464 326.015 157.616C326.783 158.768 327.167 160.352 327.167 162.368C327.167 166.208 326.255 169.184 324.431 171.296C320.303 176.384 315.839 180.56 311.039 183.824C306.335 187.088 300.959 188.72 294.911 188.72C290.303 188.72 286.895 186.944 284.687 183.392C282.575 179.84 281.519 174.848 281.519 168.416C279.887 174.944 277.439 179.984 274.175 183.536C270.911 186.992 267.407 188.72 263.663 188.72ZM398.722 155.888C399.97 155.888 400.93 156.464 401.602 157.616C402.37 158.768 402.754 160.352 402.754 162.368C402.754 166.208 401.842 169.184 400.018 171.296C395.698 176.576 391.33 180.8 386.914 183.968C382.498 187.136 377.266 188.72 371.218 188.72C363.826 188.72 357.874 186.608 353.362 182.384C348.85 178.16 346.594 172.544 346.594 165.536C346.594 161.792 348.514 159.104 352.354 157.472C356.578 155.648 359.602 153.728 361.426 151.712C363.25 149.6 364.162 147.056 364.162 144.08C364.162 142.352 363.778 141.056 363.01 140.192C362.338 139.328 361.474 138.896 360.418 138.896C357.826 138.896 354.946 140.768 351.778 144.512C348.706 148.256 345.826 153.104 343.138 159.056C340.45 164.912 338.338 170.96 336.802 177.2C335.746 181.712 334.498 184.784 333.058 186.416C331.714 187.952 329.554 188.72 326.578 188.72C323.602 188.72 321.394 187.664 319.954 185.552C318.61 183.344 317.698 179.984 317.218 175.472C316.738 170.96 316.498 164.336 316.498 155.6C316.498 140.816 317.986 125.408 320.962 109.376C324.034 93.344 328.498 79.904 334.354 69.056C340.306 58.112 347.41 52.64 355.666 52.64C360.082 52.64 363.634 54.56 366.322 58.4C369.106 62.144 370.498 67.04 370.498 73.088C370.498 82.784 367.666 92.864 362.002 103.328C356.338 113.696 347.122 125.84 334.354 139.76C334.066 144.752 333.922 149.888 333.922 155.168C338.53 143.168 343.81 134.48 349.762 129.104C355.714 123.632 361.282 120.896 366.466 120.896C371.266 120.896 375.106 122.528 377.986 125.792C380.962 129.056 382.45 133.088 382.45 137.888C382.45 143.168 381.106 148.016 378.418 152.432C375.73 156.848 371.122 160.784 364.594 164.24C364.978 166.832 366.13 168.944 368.05 170.576C370.066 172.112 372.466 172.88 375.25 172.88C378.226 172.88 381.106 171.728 383.89 169.424C386.674 167.12 390.322 163.28 394.834 157.904C395.986 156.56 397.282 155.888 398.722 155.888ZM352.642 66.896C350.914 66.896 348.994 69.392 346.882 74.384C344.77 79.28 342.706 85.952 340.69 94.4C338.77 102.752 337.186 111.872 335.938 121.76C341.89 114.752 346.786 107.12 350.626 98.864C354.562 90.608 356.53 83.12 356.53 76.4C356.53 73.328 356.194 70.976 355.522 69.344C354.85 67.712 353.89 66.896 352.642 66.896ZM474.378 155.888C475.626 155.888 476.586 156.464 477.258 157.616C478.026 158.768 478.41 160.352 478.41 162.368C478.41 166.208 477.498 169.184 475.674 171.296C471.354 176.576 466.986 180.8 462.57 183.968C458.154 187.136 452.922 188.72 446.874 188.72C439.482 188.72 433.53 186.608 429.018 182.384C424.506 178.16 422.25 172.544 422.25 165.536C422.25 161.792 424.17 159.104 428.01 157.472C432.234 155.648 435.258 153.728 437.082 151.712C438.906 149.6 439.818 147.056 439.818 144.08C439.818 142.352 439.434 141.056 438.666 140.192C437.994 139.328 437.13 138.896 436.074 138.896C433.482 138.896 430.602 140.768 427.434 144.512C424.362 148.256 421.482 153.104 418.794 159.056C416.106 164.912 413.994 170.96 412.458 177.2C411.402 181.712 410.154 184.784 408.714 186.416C407.37 187.952 405.21 188.72 402.234 188.72C399.258 188.72 397.05 187.664 395.61 185.552C394.266 183.344 393.354 179.984 392.874 175.472C392.394 170.96 392.154 164.336 392.154 155.6C392.154 140.816 393.642 125.408 396.618 109.376C399.69 93.344 404.154 79.904 410.01 69.056C415.962 58.112 423.066 52.64 431.322 52.64C435.738 52.64 439.29 54.56 441.978 58.4C444.762 62.144 446.154 67.04 446.154 73.088C446.154 82.784 443.322 92.864 437.658 103.328C431.994 113.696 422.778 125.84 410.01 139.76C409.722 144.752 409.578 149.888 409.578 155.168C414.186 143.168 419.466 134.48 425.418 129.104C431.37 123.632 436.938 120.896 442.122 120.896C446.922 120.896 450.762 122.528 453.642 125.792C456.618 129.056 458.106 133.088 458.106 137.888C458.106 143.168 456.762 148.016 454.074 152.432C451.386 156.848 446.778 160.784 440.25 164.24C440.634 166.832 441.786 168.944 443.706 170.576C445.722 172.112 448.122 172.88 450.906 172.88C453.882 172.88 456.762 171.728 459.546 169.424C462.33 167.12 465.978 163.28 470.49 157.904C471.642 156.56 472.938 155.888 474.378 155.888ZM428.298 66.896C426.57 66.896 424.65 69.392 422.538 74.384C420.426 79.28 418.362 85.952 416.346 94.4C414.426 102.752 412.842 111.872 411.594 121.76C417.546 114.752 422.442 107.12 426.282 98.864C430.218 90.608 432.186 83.12 432.186 76.4C432.186 73.328 431.85 70.976 431.178 69.344C430.506 67.712 429.546 66.896 428.298 66.896ZM531.027 155.888C532.275 155.888 533.235 156.464 533.907 157.616C534.675 158.768 535.059 160.352 535.059 162.368C535.059 166.208 534.147 169.184 532.323 171.296C528.771 175.616 523.731 179.6 517.203 183.248C510.771 186.896 503.859 188.72 496.467 188.72C486.387 188.72 478.563 185.984 472.995 180.512C467.427 175.04 464.643 167.552 464.643 158.048C464.643 151.424 466.035 145.28 468.819 139.616C471.603 133.856 475.443 129.296 480.339 125.936C485.331 122.576 490.947 120.896 497.187 120.896C502.755 120.896 507.219 122.576 510.579 125.936C513.939 129.2 515.619 133.664 515.619 139.328C515.619 145.952 513.219 151.664 508.419 156.464C503.715 161.168 495.699 164.912 484.371 167.696C486.771 172.112 491.331 174.32 498.051 174.32C502.371 174.32 507.267 172.832 512.739 169.856C518.307 166.784 523.107 162.8 527.139 157.904C528.291 156.56 529.587 155.888 531.027 155.888ZM494.739 135.008C491.187 135.008 488.163 137.072 485.667 141.2C483.267 145.328 482.067 150.32 482.067 156.176V156.464C487.731 155.12 492.195 153.104 495.459 150.416C498.723 147.728 500.355 144.608 500.355 141.056C500.355 139.232 499.827 137.792 498.771 136.736C497.811 135.584 496.467 135.008 494.739 135.008ZM547.094 134.576C546.902 139.376 546.806 143.12 546.806 145.808C546.806 152.72 547.142 158.144 547.814 162.08C548.582 165.92 549.782 168.704 551.414 170.432C553.142 172.064 555.494 172.88 558.47 172.88C560.006 172.88 561.83 172.4 563.942 171.44C566.054 170.48 567.974 169.232 569.702 167.696C570.758 166.736 571.814 166.256 572.87 166.256C574.022 166.256 574.934 166.928 575.606 168.272C576.374 169.52 576.758 171.056 576.758 172.88C576.758 174.704 576.374 176.48 575.606 178.208C574.934 179.936 573.878 181.376 572.438 182.528C567.446 186.656 561.782 188.72 555.446 188.72C546.326 188.72 539.654 184.928 535.43 177.344C531.206 169.664 529.094 159.68 529.094 147.392C529.094 143.168 529.238 138.896 529.526 134.576H523.91C521.03 134.576 519.062 134.048 518.006 132.992C517.046 131.936 516.566 130.256 516.566 127.952C516.566 122.576 518.726 119.888 523.046 119.888H531.254C532.886 109.328 535.382 99.68 538.742 90.944C542.102 82.208 546.134 75.248 550.838 70.064C555.638 64.88 560.774 62.288 566.246 62.288C570.278 62.288 573.446 64.064 575.75 67.616C578.054 71.168 579.206 75.632 579.206 81.008C579.206 95.888 572.966 108.848 560.486 119.888H576.614C578.15 119.888 579.254 120.224 579.926 120.896C580.598 121.568 580.934 122.816 580.934 124.64C580.934 131.264 575.51 134.576 564.662 134.576H547.094ZM562.358 76.112C560.918 76.112 559.286 77.936 557.462 81.584C555.734 85.136 554.054 90.128 552.422 96.56C550.886 102.896 549.59 109.952 548.534 117.728C554.198 112.832 558.422 107.36 561.206 101.312C564.086 95.168 565.526 89.6 565.526 84.608C565.526 78.944 564.47 76.112 562.358 76.112Z" fill="white"/>
<path fill-rule="evenodd" clip-rule="evenodd" d="M115.181 193H38.3938L0 60H153.575L115.181 193ZM93.8979 155.996H59.6773L42.567 96.7245H111.008L93.8979 155.996Z" fill="white"/>
</svg>
