<svg width="581" height="141" viewBox="0 0 581 141" fill="none" xmlns="http://www.w3.org/2000/svg">
<path d="M257.52 91.792C258.768 91.792 259.728 92.416 260.4 93.664C261.072 94.912 261.408 96.496 261.408 98.416C261.408 100.816 261.072 102.688 260.4 104.032C259.728 105.28 258.672 106.144 257.232 106.624C251.472 108.64 245.136 109.792 238.224 110.08C236.304 118.048 232.656 124.48 227.28 129.376C222 134.272 216.144 136.72 209.712 136.72C200.016 136.72 192.96 133.024 188.544 125.632C184.128 118.24 181.92 107.536 181.92 93.52C181.92 81.136 183.456 67.696 186.528 53.2C189.6 38.608 194.064 26.224 199.92 16.048C205.872 5.77598 212.928 0.639984 221.088 0.639984C225.504 0.639984 229.056 2.55999 231.744 6.39999C234.432 10.144 235.776 15.04 235.776 21.088C235.776 28.96 234.288 36.784 231.312 44.56C228.336 52.336 223.392 60.496 216.48 69.04C222.912 69.52 228.144 72.208 232.176 77.104C236.208 81.904 238.608 87.856 239.376 94.96C243.888 94.672 249.264 93.712 255.504 92.08C256.08 91.888 256.752 91.792 257.52 91.792ZM217.776 14.896C215.856 14.896 213.744 17.776 211.44 23.536C209.232 29.2 207.168 36.928 205.248 46.72C203.328 56.512 201.888 67.216 200.928 78.832C207.264 67.216 212.304 56.992 216.048 48.16C219.888 39.232 221.808 31.312 221.808 24.4C221.808 21.328 221.424 18.976 220.656 17.344C219.984 15.712 219.024 14.896 217.776 14.896ZM210.288 121.456C213.264 121.456 215.904 120.208 218.208 117.712C220.512 115.216 222.048 111.616 222.816 106.912C219.84 104.896 217.536 102.256 215.904 98.992C214.368 95.728 213.6 92.272 213.6 88.624C213.6 87.28 213.792 85.456 214.176 83.152H213.744C209.808 83.152 206.496 85.12 203.808 89.056C201.216 92.896 199.92 98.08 199.92 104.608C199.92 110.08 200.928 114.256 202.944 117.136C205.056 120.016 207.504 121.456 210.288 121.456Z" fill="url(#paint0_linear)"/>
<path d="M263.663 136.72C259.343 136.72 255.791 134.752 253.007 130.816C250.318 126.784 248.975 121.792 248.975 115.84C248.975 108.64 249.455 102.064 250.415 96.112C251.375 90.064 252.959 83.68 255.167 76.96C256.127 74.08 257.47 72.016 259.198 70.768C260.926 69.52 263.662 68.896 267.406 68.896C269.518 68.896 270.959 69.232 271.727 69.904C272.591 70.576 273.022 71.584 273.022 72.928C273.022 73.696 272.495 76.288 271.439 80.704C270.479 84.256 269.71 87.472 269.134 90.352C267.214 100.432 266.255 107.152 266.255 110.512C266.255 112.528 266.494 113.968 266.974 114.832C267.454 115.6 268.223 115.984 269.279 115.984C270.719 115.984 272.495 114.544 274.607 111.664C276.815 108.784 279.118 104.416 281.518 98.56C284.014 92.704 286.415 85.504 288.719 76.96C289.487 74.08 290.638 72.016 292.174 70.768C293.806 69.52 296.207 68.896 299.375 68.896C301.583 68.896 303.119 69.184 303.983 69.76C304.847 70.24 305.279 71.2 305.279 72.64C305.279 75.04 304.078 81.616 301.678 92.368C298.99 104.656 297.647 112.24 297.647 115.12C297.647 116.944 298.03 118.384 298.798 119.44C299.566 120.4 300.575 120.88 301.823 120.88C303.743 120.88 305.999 119.728 308.591 117.424C311.279 115.024 314.83 111.184 319.246 105.904C320.398 104.56 321.694 103.888 323.134 103.888C324.382 103.888 325.342 104.464 326.014 105.616C326.782 106.768 327.167 108.352 327.167 110.368C327.167 114.208 326.255 117.184 324.431 119.296C320.303 124.384 315.839 128.56 311.039 131.824C306.335 135.088 300.958 136.72 294.91 136.72C290.302 136.72 286.894 134.944 284.686 131.392C282.574 127.84 281.518 122.848 281.518 116.416C279.886 122.944 277.438 127.984 274.174 131.536C270.911 134.992 267.407 136.72 263.663 136.72Z" fill="url(#paint1_linear)"/>
<path d="M398.722 103.888C399.97 103.888 400.93 104.464 401.602 105.616C402.37 106.768 402.754 108.352 402.754 110.368C402.754 114.208 401.842 117.184 400.018 119.296C395.698 124.576 391.33 128.8 386.914 131.968C382.498 135.136 377.266 136.72 371.218 136.72C363.826 136.72 357.874 134.608 353.362 130.384C348.85 126.16 346.594 120.544 346.594 113.536C346.594 109.792 348.514 107.104 352.354 105.472C356.578 103.648 359.602 101.728 361.426 99.712C363.25 97.6 364.162 95.056 364.162 92.08C364.162 90.352 363.778 89.056 363.01 88.192C362.338 87.328 361.474 86.896 360.418 86.896C357.826 86.896 354.946 88.768 351.778 92.512C348.706 96.256 345.826 101.104 343.138 107.056C340.45 112.912 338.338 118.96 336.802 125.2C335.746 129.712 334.498 132.784 333.058 134.416C331.714 135.952 329.554 136.72 326.578 136.72C323.602 136.72 321.394 135.664 319.954 133.552C318.61 131.344 317.698 127.984 317.218 123.472C316.738 118.96 316.498 112.336 316.498 103.6C316.498 88.816 317.986 73.408 320.962 57.376C324.034 41.344 328.498 27.904 334.354 17.056C340.306 6.11199 347.41 0.639984 355.666 0.639984C360.082 0.639984 363.634 2.55999 366.322 6.39999C369.106 10.144 370.498 15.04 370.498 21.088C370.498 30.784 367.666 40.864 362.002 51.328C356.338 61.696 347.122 73.84 334.354 87.76C334.066 92.752 333.922 97.888 333.922 103.168C338.53 91.168 343.81 82.48 349.762 77.104C355.714 71.632 361.282 68.896 366.466 68.896C371.266 68.896 375.106 70.528 377.986 73.792C380.962 77.056 382.45 81.088 382.45 85.888C382.45 91.168 381.106 96.016 378.418 100.432C375.73 104.848 371.122 108.784 364.594 112.24C364.978 114.832 366.13 116.944 368.05 118.576C370.066 120.112 372.466 120.88 375.25 120.88C378.226 120.88 381.106 119.728 383.89 117.424C386.674 115.12 390.322 111.28 394.834 105.904C395.986 104.56 397.282 103.888 398.722 103.888ZM352.642 14.896C350.914 14.896 348.994 17.392 346.882 22.384C344.77 27.28 342.706 33.952 340.69 42.4C338.77 50.752 337.186 59.872 335.938 69.76C341.89 62.752 346.786 55.12 350.626 46.864C354.562 38.608 356.53 31.12 356.53 24.4C356.53 21.328 356.194 18.976 355.522 17.344C354.85 15.712 353.89 14.896 352.642 14.896Z" fill="url(#paint2_linear)"/>
<path d="M474.378 103.888C475.626 103.888 476.586 104.464 477.258 105.616C478.026 106.768 478.41 108.352 478.41 110.368C478.41 114.208 477.498 117.184 475.674 119.296C471.354 124.576 466.986 128.8 462.57 131.968C458.154 135.136 452.922 136.72 446.874 136.72C439.482 136.72 433.53 134.608 429.018 130.384C424.506 126.16 422.25 120.544 422.25 113.536C422.25 109.792 424.17 107.104 428.01 105.472C432.234 103.648 435.258 101.728 437.082 99.712C438.906 97.6 439.818 95.056 439.818 92.08C439.818 90.352 439.434 89.056 438.666 88.192C437.994 87.328 437.13 86.896 436.074 86.896C433.482 86.896 430.602 88.768 427.434 92.512C424.362 96.256 421.482 101.104 418.794 107.056C416.106 112.912 413.994 118.96 412.458 125.2C411.402 129.712 410.154 132.784 408.714 134.416C407.37 135.952 405.21 136.72 402.234 136.72C399.258 136.72 397.05 135.664 395.61 133.552C394.266 131.344 393.354 127.984 392.874 123.472C392.394 118.96 392.154 112.336 392.154 103.6C392.154 88.816 393.642 73.408 396.618 57.376C399.69 41.344 404.154 27.904 410.01 17.056C415.962 6.11199 423.066 0.639984 431.322 0.639984C435.738 0.639984 439.29 2.55999 441.978 6.39999C444.762 10.144 446.154 15.04 446.154 21.088C446.154 30.784 443.322 40.864 437.658 51.328C431.994 61.696 422.778 73.84 410.01 87.76C409.722 92.752 409.578 97.888 409.578 103.168C414.186 91.168 419.466 82.48 425.418 77.104C431.37 71.632 436.938 68.896 442.122 68.896C446.922 68.896 450.762 70.528 453.642 73.792C456.618 77.056 458.106 81.088 458.106 85.888C458.106 91.168 456.762 96.016 454.074 100.432C451.386 104.848 446.778 108.784 440.25 112.24C440.634 114.832 441.786 116.944 443.706 118.576C445.722 120.112 448.122 120.88 450.906 120.88C453.882 120.88 456.762 119.728 459.546 117.424C462.33 115.12 465.978 111.28 470.49 105.904C471.642 104.56 472.938 103.888 474.378 103.888ZM428.298 14.896C426.57 14.896 424.65 17.392 422.538 22.384C420.426 27.28 418.362 33.952 416.346 42.4C414.426 50.752 412.842 59.872 411.594 69.76C417.546 62.752 422.442 55.12 426.282 46.864C430.218 38.608 432.186 31.12 432.186 24.4C432.186 21.328 431.85 18.976 431.178 17.344C430.506 15.712 429.546 14.896 428.298 14.896Z" fill="url(#paint3_linear)"/>
<path d="M531.027 103.888C532.275 103.888 533.235 104.464 533.907 105.616C534.675 106.768 535.059 108.352 535.059 110.368C535.059 114.208 534.147 117.184 532.323 119.296C528.771 123.616 523.731 127.6 517.203 131.248C510.771 134.896 503.859 136.72 496.467 136.72C486.387 136.72 478.563 133.984 472.995 128.512C467.427 123.04 464.643 115.552 464.643 106.048C464.643 99.424 466.035 93.28 468.819 87.616C471.603 81.856 475.443 77.296 480.339 73.936C485.331 70.576 490.947 68.896 497.187 68.896C502.755 68.896 507.219 70.576 510.579 73.936C513.939 77.2 515.619 81.664 515.619 87.328C515.619 93.952 513.219 99.664 508.419 104.464C503.715 109.168 495.699 112.912 484.371 115.696C486.771 120.112 491.331 122.32 498.051 122.32C502.371 122.32 507.267 120.832 512.739 117.856C518.307 114.784 523.107 110.8 527.139 105.904C528.291 104.56 529.587 103.888 531.027 103.888ZM494.739 83.008C491.187 83.008 488.163 85.072 485.667 89.2C483.267 93.328 482.067 98.32 482.067 104.176V104.464C487.731 103.12 492.195 101.104 495.459 98.416C498.723 95.728 500.355 92.608 500.355 89.056C500.355 87.232 499.827 85.792 498.771 84.736C497.811 83.584 496.467 83.008 494.739 83.008Z" fill="url(#paint4_linear)"/>
<path d="M547.094 82.576C546.902 87.376 546.806 91.12 546.806 93.808C546.806 100.72 547.142 106.144 547.814 110.08C548.582 113.92 549.782 116.704 551.414 118.432C553.142 120.064 555.494 120.88 558.47 120.88C560.006 120.88 561.83 120.4 563.942 119.44C566.054 118.48 567.974 117.232 569.702 115.696C570.758 114.736 571.814 114.256 572.87 114.256C574.022 114.256 574.934 114.928 575.606 116.272C576.374 117.52 576.758 119.056 576.758 120.88C576.758 122.704 576.374 124.48 575.606 126.208C574.934 127.936 573.878 129.376 572.438 130.528C567.446 134.656 561.782 136.72 555.446 136.72C546.326 136.72 539.654 132.928 535.43 125.344C531.206 117.664 529.094 107.68 529.094 95.392C529.094 91.168 529.238 86.896 529.526 82.576H523.91C521.03 82.576 519.062 82.048 518.006 80.992C517.046 79.936 516.566 78.256 516.566 75.952C516.566 70.576 518.726 67.888 523.046 67.888H531.254C532.886 57.328 535.382 47.68 538.742 38.944C542.102 30.208 546.134 23.248 550.838 18.064C555.638 12.88 560.774 10.288 566.246 10.288C570.278 10.288 573.446 12.064 575.75 15.616C578.054 19.168 579.206 23.632 579.206 29.008C579.206 43.888 572.966 56.848 560.486 67.888H576.614C578.15 67.888 579.254 68.224 579.926 68.896C580.598 69.568 580.934 70.816 580.934 72.64C580.934 79.264 575.51 82.576 564.662 82.576H547.094ZM562.358 24.112C560.918 24.112 559.286 25.936 557.462 29.584C555.734 33.136 554.054 38.128 552.422 44.56C550.886 50.896 549.59 57.952 548.534 65.728C554.198 60.832 558.422 55.36 561.206 49.312C564.086 43.168 565.526 37.6 565.526 32.608C565.526 26.944 564.47 24.112 562.358 24.112Z" fill="url(#paint5_linear)"/>
<path fill-rule="evenodd" clip-rule="evenodd" d="M115.181 141H38.3938L0 7.99999H153.575L115.181 141ZM93.8979 103.996H59.6773L42.567 44.7245H111.008L93.8979 103.996Z" fill="url(#paint6_linear)"/>
<defs>
<linearGradient id="paint0_linear" x1="-67.5" y1="-52.5" x2="713" y2="169" gradientUnits="userSpaceOnUse">
<stop stop-color="#6454E4"/>
<stop offset="1" stop-color="#4E78E8"/>
</linearGradient>
<linearGradient id="paint1_linear" x1="-67.5" y1="-52.5" x2="713" y2="169" gradientUnits="userSpaceOnUse">
<stop stop-color="#6454E4"/>
<stop offset="1" stop-color="#4E78E8"/>
</linearGradient>
<linearGradient id="paint2_linear" x1="-67.5" y1="-52.5" x2="713" y2="169" gradientUnits="userSpaceOnUse">
<stop stop-color="#6454E4"/>
<stop offset="1" stop-color="#4E78E8"/>
</linearGradient>
<linearGradient id="paint3_linear" x1="-67.5" y1="-52.5" x2="713" y2="169" gradientUnits="userSpaceOnUse">
<stop stop-color="#6454E4"/>
<stop offset="1" stop-color="#4E78E8"/>
</linearGradient>
<linearGradient id="paint4_linear" x1="-67.5" y1="-52.5" x2="713" y2="169" gradientUnits="userSpaceOnUse">
<stop stop-color="#6454E4"/>
<stop offset="1" stop-color="#4E78E8"/>
</linearGradient>
<linearGradient id="paint5_linear" x1="-67.5" y1="-52.5" x2="713" y2="169" gradientUnits="userSpaceOnUse">
<stop stop-color="#6454E4"/>
<stop offset="1" stop-color="#4E78E8"/>
</linearGradient>
<linearGradient id="paint6_linear" x1="-67.5" y1="-52.5" x2="713" y2="169" gradientUnits="userSpaceOnUse">
<stop stop-color="#6454E4"/>
<stop offset="1" stop-color="#4E78E8"/>
</linearGradient>
</defs>
</svg>
